# xmcd CD database file
#
# Track frame offsets:
#	150
#	15660
#	31427
#	47657
#	60922
#	76427
#	91547
#	106100
#	123317
#	138222
#
# Disc length: 2041 seconds
#
# Revision: 3
# Processed by: cddbd v1.5.1PL0 Copyright (c) Steve Scherf et al.
# Submitted via: CDex 1.51
#
DISCID=6b07f70a
DTITLE=Lee Greenwood - When Your In Love
DYEAR=1991
DGENRE=Country
TTITLE0=So Close
TTITLE1=When You're In Love
TTITLE2=If You'll Let This Fool Back In 
TTITLE3=Between A Rock And A Heartache
TTITLE4=She Holds The Key
TTITLE5=Rain
TTITLE6=Common Kindness
TTITLE7=You And Me And The Moon
TTITLE8=Somebody's Gotta Take The Fall
TTITLE9=Monday All Week Long
EXTD=more info\nMillenniumMusicProjectFormat, syntax as follows:\nTitle{Subtitle}[info](Lyricist;Composer;Date,Artist,Location)[info]\ncorrections to: windking3@yahoo.com YEAR: 1991
EXTT0=
EXTT1=
EXTT2=
EXTT3=
EXTT4=
EXTT5=
EXTT6=
EXTT7=
EXTT8=
EXTT9=
PLAYORDER=
